<svg xmlns="http://www.w3.org/2000/svg" viewBox="0 0 178.04 34.45"><g id="Capa_2" data-name="Capa 2"><g id="Capa_1-2" data-name="Capa 1"><path d="M63.51,8.44A10.91,10.91,0,1,0,74.42,19.35,10.92,10.92,0,0,0,63.51,8.44Zm0,15.69a4.78,4.78,0,1,1,4.78-4.78A4.78,4.78,0,0,1,63.51,24.13Z"/><rect x="103.31" y="10.37" width="6.13" height="18.21"/><path d="M171.91,10.25v1.63a10.91,10.91,0,1,0,0,15.2v1.38H178V10.25Zm-7.81,14a4.78,4.78,0,1,1,4.78-4.78A4.79,4.79,0,0,1,164.1,24.26Z"/><path d="M13.94,8.44a10.86,10.86,0,0,0-7.81,3.31v-1.5H0v24.2H6.13V27A10.91,10.91,0,1,0,13.94,8.44Zm0,15.69a4.78,4.78,0,1,1,4.79-4.78A4.79,4.79,0,0,1,13.94,24.13Z"/><path d="M140.13,13.69a10.86,10.86,0,0,0-8.1,3.62,10.91,10.91,0,0,0-19,7.29h6.13a4.78,4.78,0,1,1,9.56,0h6.65a4.78,4.78,0,1,1,9.56,0H151A10.92,10.92,0,0,0,140.13,13.69Z"/><path d="M39.15,8.44A10.92,10.92,0,0,0,28.25,19h0v9.59h6.13V19.35a4.78,4.78,0,0,1,9.56,0h6.13A10.92,10.92,0,0,0,39.15,8.44Z"/><circle cx="106.37" cy="4.66" r="3.58"/><rect x="84.9" y="7.65" width="6.13" height="23.65" transform="translate(11.99 67.91) rotate(-45)"/><rect x="76.14" y="16.41" width="23.65" height="6.13" transform="translate(11.99 67.91) rotate(-45)"/><rect x="59.42" y="0.46" width="8.18" height="6.13" transform="translate(0.03 7.53) rotate(-6.79)"/></g></g></svg>