<?xml version="1.0" encoding="utf-8"?>
<!-- Generator: Adobe Illustrator 24.1.0, SVG Export Plug-In . SVG Version: 6.00 Build 0)  -->
<svg version="1.1" id="Capa_1" xmlns="http://www.w3.org/2000/svg" xmlns:xlink="http://www.w3.org/1999/xlink" x="0px" y="0px"
	 viewBox="0 0 178.04 34.45" style="color:black;" xml:space="preserve">
<g>
	<path d="M351.51,42.44c-6.02,0-10.91,4.89-10.91,10.91c0,6.02,4.89,10.91,10.91,10.91c6.02,0,10.91-4.89,10.91-10.91
		C362.42,47.34,357.53,42.44,351.51,42.44z M351.51,58.13c-2.64,0-4.78-2.15-4.78-4.78c0-2.64,2.14-4.78,4.78-4.78
		c2.64,0,4.78,2.14,4.78,4.78C356.29,55.99,354.15,58.13,351.51,58.13z"/>
	<rect x="391.31" y="44.37" width="6.13" height="18.21"/>
	<path d="M459.91,44.25v1.63c-1.98-2.04-4.75-3.31-7.82-3.31c-6.02,0-10.91,4.89-10.91,10.91c0,6.02,4.89,10.91,10.91,10.91
		c3.06,0,5.83-1.27,7.82-3.31v1.38h6.13V44.25H459.91z M452.1,58.26c-2.64,0-4.78-2.14-4.78-4.78s2.14-4.78,4.78-4.78
		s4.78,2.15,4.78,4.78S454.73,58.26,452.1,58.26z"/>
	<path d="M301.94,42.44c-3.06,0-5.83,1.27-7.82,3.31v-1.5H288v24.21h6.13v-7.5c1.98,2.04,4.75,3.31,7.82,3.31
		c6.02,0,10.91-4.89,10.91-10.91C312.86,47.34,307.96,42.44,301.94,42.44z M301.94,58.13c-2.64,0-4.78-2.14-4.78-4.78
		c0-2.64,2.14-4.78,4.78-4.78c2.64,0,4.78,2.15,4.78,4.78C306.73,55.99,304.58,58.13,301.94,58.13z"/>
	<path d="M428.13,47.69c-3.21,0-6.11,1.4-8.1,3.61c-2-2.22-4.89-3.61-8.1-3.61c-6.02,0-10.91,4.89-10.91,10.91h6.13
		c0-2.64,2.14-4.78,4.78-4.78c2.64,0,4.78,2.14,4.78,4.78h0.52h5.61h0.52c0-2.64,2.14-4.78,4.78-4.78c2.64,0,4.78,2.14,4.78,4.78
		h6.13C439.04,52.59,434.15,47.69,428.13,47.69z"/>
	<path d="M327.15,42.44c-5.89,0-10.71,4.7-10.9,10.54h-0.01v9.58h6.13v-9.21c0-2.64,2.14-4.78,4.78-4.78c2.64,0,4.78,2.14,4.78,4.78
		h6.13C338.06,47.34,333.17,42.44,327.15,42.44z"/>
	<path d="M394.37,35.08c-1.98,0-3.58,1.6-3.58,3.58c0,1.98,1.6,3.58,3.58,3.58c1.98,0,3.58-1.6,3.58-3.58
		C397.95,36.68,396.35,35.08,394.37,35.08z"/>
	<polygon points="382.17,42.95 375.97,49.14 369.77,42.95 365.44,47.28 371.64,53.48 365.44,59.67 369.77,64.01 375.97,57.81 
		382.17,64.01 386.5,59.67 380.3,53.48 386.5,47.28 	"/>
	<rect x="347.42" y="34.46" transform="matrix(0.993 -0.1181 0.1181 0.993 -1.9717 41.7909)" width="8.18" height="6.13"/>
</g>
</svg>
